PathFileType	4	(X/Y/Z)	C:/Users/beibeiliu/ov580/test_trc/User2\sequence.35_training_dense_right.trc
DataRate	CameraRate	NumFrames	NumMarkers	Units	OrigDataRate	OrigDataStartFrame	OrigNumFrames
120	120	14	19	mm	120	73	289
Frame#	Time	ThumbCMC			ThumbMCP			ThumbIP			ThumbTip			IndexMCP			IndexPIP			IndexTip			MiddleMCP			MiddlePIP			MiddleTip			RingMCP			RingPIP			RingTip			PinkyMCP			PinkyPIP			PinkyTip			BackHand1			BackHand2			BackHand3	
		X0	Y0	Z0	X1	Y1	Z1	X2	Y2	Z2	X3	Y3	Z3	X4	Y4	Z4	X5	Y5	Z5	X6	Y6	Z6	X7	Y7	Z7	X8	Y8	Z8	X9	Y9	Z9	X10	Y10	Z10	X11	Y11	Z11	X12	Y12	Z12	X13	Y13	Z13	X14	Y14	Z14	X15	Y15	Z15	X16	Y16	Z16	X17	Y17	Z17	X18	Y18	Z18	
72	0.6	79.1678	-27.1139	87.4163	62.409	-16.2489	56.4568	42.2022	-19.9168	28.1811	23.8445	-32.4918	12.2498	56.4953	-71.08	16.6484	22.0157	-74.7268	3.19641	-3.0526	-61.9464	22.7572	47.7515	-92.6037	15.9403	11.6589	-92.8174	9.0451	-10.3879	-72.7238	32.456	42.5089	-107.392	31.091	9.46335	-102.222	22.9736	-10.2806	-83.9516	47.1246	39.5211	-116.346	52.6249	6.24985	-108.844	41.7072	-13.9501	-90.6612	57.1124	84.0617	-98.5782	77.4134	97.5002	-90.7453	103.474	96.2391	-59.8016	74.8022	
73	0.608333	78.4465	-28.3577	83.5465	63.4707	-13.0191	56.9716	43.2566	-18.6427	29.1073	27.2124	-27.2599	10.4161	55.4924	-70.6838	14.6562	24.0544	-71.5757	1.06392	-2.78052	-62.6301	19.0896	48.7649	-92.015	15.9185	15.0301	-92.9542	8.72406	-10.4398	-73.8981	33.1873	43.5177	-106.869	31.3064	8.40596	-106.718	24.5204	-9.32167	-84.3629	46.892	38.8327	-118.332	53.303	5.81066	-113.889	43.6679	-14.1733	-90.778	57.3805	82.3166	-96.3709	75.3489	98.4824	-87.4299	106.014	96.9182	-58.9297	78.2846	
74	0.616667	77.3007	-27.9904	85.2709	62.5349	-17.8255	56.5961	44.8266	-17.9772	29.3389	28.1986	-26.5508	9.50976	54.371	-70.2805	15.1942	21.4988	-73.5629	2.7218	-3.44057	-65.886	23.3904	47.8509	-91.9766	16.0479	11.7276	-93.9814	10.6299	-11.641	-77.539	34.9862	44.1465	-108.518	31.8339	7.11211	-105.679	26.1654	-8.78225	-86.6874	45.3632	39.7869	-118.927	52.8859	5.42822	-112.639	42.7551	-10.8365	-90.0949	57.1975	82.3095	-99.608	75.4227	98.9528	-87.2624	106.67	96.3987	-60.8042	74.5694	
75	0.625	77.603	-27.32	84.384	63.8846	-14.6109	58.8875	46.3117	-14.0962	29.4516	30.2662	-21.2031	4.73803	52.1697	-70.1933	13.8911	21.6032	-73.1148	4.14218	-4.78462	-61.55	22.3829	50.6422	-89.2135	17.0033	11.27	-90.4596	8.66767	-11.864	-73.4836	38.4813	40.4326	-109.729	28.7889	12.4252	-105.985	22.7571	-7.49538	-86.0015	46.8908	41.4507	-118.882	53.0489	9.95546	-116.218	42.1734	-11.3401	-93.4699	57.3751	83.2643	-99.4611	75.527	98.38	-87.4707	105.852	97.9958	-58.9802	73.8353	
76	0.633333	78.1896	-26.6278	85.8781	63.7296	-16.161	54.7834	46.2631	-15.2448	28.1161	30.8492	-16.7018	5.48044	55.1749	-70.9261	16.841	22.9932	-70.9505	1.86346	-6.00545	-62.6696	26.6191	49.2957	-89.6453	15.3958	11.3022	-91.9924	9.39565	-10.3411	-74.2577	35.3803	43.6847	-106.447	30.0207	8.81809	-105.1	24.1246	-7.2442	-85.6582	46.9233	41.9097	-116.963	51.6069	10.9297	-114.72	40.9113	-9.24482	-90.6035	55.7978	84.71	-94.9425	78.6506	99.9562	-90.5036	103.041	98.5518	-58.994	79.2056	
77	0.641667	78.5056	-25.5461	84.0509	62.913	-16.7017	59.1398	47.1776	-13.966	28.3363	30.4317	-17.0639	5.94002	52.7423	-68.4373	10.7131	21.7383	-71.9006	3.10064	-4.79039	-64.1287	25.1785	47.289	-90.9609	15.7638	12.5705	-88.7976	8.47781	-10.9691	-75.305	38.8712	39.1249	-110.871	28.2996	11.4351	-103.372	23.1595	-7.10517	-83.5823	44.9139	39.6235	-120.892	52.8369	7.04408	-114.772	43.2515	-9.9541	-91.4878	60.9638	82.6261	-96.196	75.6421	97.2525	-90.191	103.33	96.011	-61.8494	77.3058	
78	0.65	79.2503	-24.6471	84.9213	64.1561	-13.2106	59.087	46.1045	-14.1795	22.8401	29.5469	-23.7527	5.88791	54.4133	-69.694	15.8207	22.603	-71.3209	1.0604	-3.95943	-63.2857	24.2108	49.506	-90.2409	17.9443	11.2659	-92.9631	10.8488	-10.645	-74.1994	38.153	39.3453	-109.845	30.0877	6.90431	-106.017	25.8511	-7.26045	-83.3351	48.8579	36.8592	-119.989	49.9393	7.2506	-115.615	43.2363	-9.50696	-90.9362	57.0778	84.737	-96.0757	75.5427	100.861	-85.7541	103.883	95.8432	-61.2261	75.6769	
79	0.658333	78.2426	-24.8694	83.0979	64.6679	-13.0277	56.6047	45.9868	-13.9512	30.7263	29.4353	-26.1579	9.70852	52.8871	-68.6975	11.007	21.135	-74.9073	3.40432	-2.87352	-59.5458	22.0314	49.2531	-88.8954	16.4338	12.4431	-90.9039	9.61618	-10.3272	-69.6546	40.5001	42.6346	-106.209	31.0769	8.11411	-103.209	24.2646	-6.85016	-81.6299	50.6116	37.9117	-120.601	50.3291	9.34631	-110.296	41.0544	-11.3392	-90.3984	59.6912	85.3501	-95.0915	76.7044	99.9869	-85.454	101.502	96.0983	-58.2392	77.1904	
80	0.666667	79.7516	-24.0833	84.62	63.3906	-12.8806	55.1834	43.6519	-14.3066	28.6087	25.3188	-26.5284	9.62071	54.0753	-71.8312	13.0756	22.7123	-73.1223	2.15134	-2.68226	-60.6731	23.3033	47.7265	-90.4808	16.7627	11.2086	-92.1236	10.9715	-9.88777	-70.8099	37.3769	43.2568	-106.61	30.632	11.2991	-102.999	23.893	-6.85669	-81.089	48.0559	40.0211	-116.529	50.1186	6.35504	-110.813	42.9477	-9.60625	-88.6044	62.3596	85.6677	-93.3283	76.0759	99.2523	-85.5876	103.042	96.303	-57.5586	77.5063	
81	0.675	78.3896	-23.492	85.1213	61.1899	-11.7476	58.7704	40.4564	-13.9662	30.9164	23.6847	-34.7164	20.3578	54.5207	-67.4423	12.1806	23.1141	-71.5038	2.43583	-3.87277	-59.0375	23.6285	46.7438	-92.1281	15.4382	9.37093	-90.1709	12.676	-9.7253	-69.8392	37.8792	41.7564	-107.341	29.4612	9.32859	-100.74	23.3536	-8.45277	-83.9068	50.3556	38.7975	-116.754	49.431	6.68361	-111.635	43.4355	-9.99288	-89.9484	59.3105	85.5611	-93.2658	78.4058	100.529	-88.3958	105.595	96.3417	-61.0795	77.964	
82	0.683333	78.8015	-20.9435	83.7649	60.8657	-11.3636	59.0422	38.376	-18.819	32.5182	22.2998	-40.5887	24.405	53.0329	-70.006	14.2031	24.7719	-72.8204	3.00644	-1.14126	-63.4051	22.0859	48.8562	-88.4746	16.6306	14.8387	-87.5479	7.28949	-10.7775	-69.2009	39.086	41.1949	-105.503	28.2567	9.39706	-99.5013	23.8049	-7.55821	-83.479	46.1312	41.5681	-115.31	51.1754	7.52815	-111.545	42.8543	-9.16162	-90.5575	56.9702	84.1028	-95.8348	73.9461	101.09	-86.8543	101.027	95.3782	-59.1359	75.0927	
83	0.691667	79.5893	-24.1493	86.7934	60.9384	-10.1936	57.9896	38.5802	-17.4574	34.123	22.5162	-43.4208	27.1576	55.4355	-68.7133	16.1865	22.46	-70.6949	2.07326	-4.17336	-57.9795	21.28	49.8153	-89.9974	17.8103	14.0516	-89.0844	8.94322	-10.1491	-70.8137	35.3367	43.946	-102.557	30.371	12.5635	-103.037	23.4068	-8.30149	-79.2397	45.5276	38.7057	-114.727	48.4183	7.39653	-107.33	41.3981	-9.36734	-89.5543	55.5425	85.2745	-96.8975	75.9323	100.931	-88.5362	106.536	98.1445	-59.7747	75.7735	
84	0.7	79.5279	-23.6901	87.0561	61.8388	-13.2129	60.0856	37.0029	-19.9265	32.7132	23.1188	-44.0041	31.1689	54.5268	-64.5173	12.5614	22.4082	-71.7123	4.8062	-4.496	-59.6972	23.1395	49.8141	-86.3709	18.3219	10.5431	-87.5423	9.24243	-12.2745	-71.9409	38.2213	42.0446	-102.21	27.1041	10.0781	-104.979	24.5216	-7.30684	-79.9959	44.2762	42.6216	-115.171	52.8647	8.96296	-112.901	41.597	-8.00551	-90.082	54.1932	85.0277	-91.8303	72.3599	100.859	-87.5265	102.604	96.2447	-60.3471	75.7583	
85	0.708333	78.9104	-24.1646	85.6037	61.558	-11.248	59.8177	37.8395	-23.1899	35.5494	21.5744	-45.2442	28.9209	54.4013	-64.8487	16.3322	22.9552	-71.169	3.74912	-5.86337	-60.1545	23.6611	47.1273	-86.0498	14.6173	13.4488	-90.1135	9.24061	-13.2585	-70.5672	37.7694	40.5677	-106.534	29.9864	12.0396	-101.988	22.8618	-9.44135	-83.5965	48.1921	39.3962	-115.058	50.0637	9.43989	-112.08	41.5236	-9.02044	-87.9219	56.6244	85.5144	-91.3014	76.3417	100.346	-85.7086	106.759	97.8663	-59.3129	80.1381	
